# 3ds Max Wavefront OBJ Exporter v0.97b - (c)2007 guruware
# File Created: 29.10.2015 19:38:25

#mtllib 3d-model.mtl

#
# object Layer0_001
#

v  -186.2314 0.0000 84.7925
v  -197.2628 0.0000 36.9705
v  -195.5410 0.0000 -12.0771
v  -181.1834 0.0000 -59.0079
v  -163.1988 0.0000 128.1299
v  -155.1684 0.0000 -100.6235
v  -129.7343 0.0000 164.0293
v  -119.2690 0.0000 -134.0879
v  -88.1187 0.0000 190.0443
v  -75.9316 0.0000 -157.1206
v  -41.1880 0.0000 204.4019
v  -28.1096 0.0000 -168.1519
v  7.8596 0.0000 206.1237
v  20.9380 0.0000 -166.4301
v  55.6817 0.0000 195.0923
v  67.8688 0.0000 -152.0725
v  99.0191 0.0000 172.0596
v  109.4844 0.0000 -126.0576
v  134.9185 0.0000 138.5952
v  142.9488 0.0000 -90.1582
v  160.9334 0.0000 96.9796
v  165.9815 0.0000 -46.8208
v  175.2910 0.0000 50.0489
v  177.0128 0.0000 1.0013
v  67.8688 956.7500 -152.0725
v  109.4844 956.7500 -126.0576
v  142.9488 956.7500 -90.1582
v  165.9815 956.7500 -46.8208
v  177.0128 478.3750 1.0013
v  177.0128 956.7500 1.0013
v  175.2910 956.7500 50.0489
v  160.9334 956.7500 96.9796
v  134.9185 956.7500 138.5952
v  99.0191 956.7500 172.0596
v  55.6817 956.7500 195.0923
v  7.8596 956.7500 206.1237
v  -41.1880 478.3750 204.4019
v  -41.1880 956.7500 204.4019
v  -88.1187 956.7500 190.0443
v  -129.7343 956.7500 164.0293
v  -163.1988 956.7500 128.1299
v  -186.2314 956.7500 84.7925
v  -197.2628 956.7500 36.9705
v  -197.2628 478.3750 36.9705
v  -195.5410 956.7500 -12.0771
v  -181.1834 956.7500 -59.0079
v  -155.1684 956.7500 -100.6235
v  -119.2690 956.7500 -134.0879
v  -75.9316 956.7500 -157.1206
v  -28.1096 478.3750 -168.1519
v  -28.1096 956.7500 -168.1519
v  20.9380 956.7500 -166.4301
v  -10.1250 1221.7500 18.9859
v  -28.1096 0.0000 -468.9019
v  -41.1880 0.0000 468.9019
v  -451.7628 0.0000 36.9705
v  451.7628 0.0000 1.0013
# 57 vertices

vn 0.0000 -1.0000 -0.0000
vn 0.6362 0.0000 -0.7715
vn 0.4149 0.0000 -0.9099
vn 0.8142 0.0000 -0.5806
vn 0.9367 0.0000 -0.3500
vn 0.9954 0.0000 -0.0957
vn 0.9744 0.0000 -0.2248
vn 0.9863 0.0000 0.1652
vn 0.9994 0.0000 0.0351
vn 0.9099 0.0000 0.4149
vn 0.7715 0.0000 0.6362
vn 0.5806 0.0000 0.8142
vn 0.3500 0.0000 0.9367
vn 0.0957 0.0000 0.9954
vn -0.0351 0.0000 0.9994
vn -0.1652 0.0000 0.9863
vn -0.4149 0.0000 0.9099
vn -0.2925 0.0000 0.9563
vn -0.6362 0.0000 0.7715
vn -0.8142 0.0000 0.5806
vn -0.9367 0.0000 0.3500
vn -0.9954 0.0000 0.0957
vn -0.9744 0.0000 0.2248
vn -0.9863 0.0000 -0.1652
vn -0.9994 0.0000 -0.0351
vn -0.9099 0.0000 -0.4149
vn -0.7715 0.0000 -0.6362
vn -0.5806 0.0000 -0.8142
vn -0.3500 0.0000 -0.9367
vn -0.2248 0.0000 -0.9744
vn -0.0957 0.0000 -0.9954
vn 0.1652 0.0000 -0.9863
vn 0.0351 0.0000 -0.9994
vn 0.7822 0.5753 0.2393
vn 0.7421 0.5786 0.3384
vn 0.8044 0.5786 0.1348
vn 0.6936 0.5753 0.4336
vn 0.6292 0.5786 0.5189
vn 0.5577 0.5753 0.5983
vn 0.4735 0.5786 0.6641
vn 0.3839 0.5753 0.7223
vn 0.2855 0.5786 0.7640
vn 0.1838 0.5753 0.7970
vn 0.0780 0.5786 0.8119
vn -0.0287 0.5753 0.8174
vn -0.1348 0.5786 0.8044
vn -0.2393 0.5753 0.7822
vn -0.3384 0.5786 0.7421
vn -0.4336 0.5753 0.6936
vn -0.5189 0.5786 0.6292
vn -0.5983 0.5753 0.5577
vn -0.6641 0.5786 0.4735
vn -0.7223 0.5753 0.3839
vn -0.7640 0.5786 0.2855
vn -0.7970 0.5753 0.1838
vn -0.8119 0.5786 0.0780
vn -0.8044 0.5786 -0.1348
vn -0.8174 0.5753 -0.0287
vn -0.7421 0.5786 -0.3384
vn -0.7822 0.5753 -0.2393
vn -0.6292 0.5786 -0.5189
vn -0.6936 0.5753 -0.4336
vn -0.5577 0.5753 -0.5983
vn -0.4735 0.5786 -0.6641
vn -0.3839 0.5753 -0.7223
vn -0.2855 0.5786 -0.7640
vn -0.1838 0.5753 -0.7970
vn -0.0780 0.5786 -0.8119
vn 0.0287 0.5753 -0.8174
vn 0.1348 0.5786 -0.8044
vn 0.2393 0.5753 -0.7822
vn 0.3384 0.5786 -0.7421
vn 0.4336 0.5753 -0.6936
vn 0.5189 0.5786 -0.6292
vn 0.5983 0.5753 -0.5577
vn 0.6641 0.5786 -0.4735
vn 0.7223 0.5753 -0.3839
vn 0.7640 0.5786 -0.2855
vn 0.7970 0.5753 -0.1838
vn 0.8119 0.5786 -0.0780
vn 0.8174 0.5753 0.0287
vn -1.0000 0.0000 -0.0000
vn 0.0000 0.0000 1.0000
vn 0.0000 0.0000 -1.0000
# 84 vertex normals

vt 0.0000 0.0000 0.0000
# 1 texture coords

g Layer0_001
#usemtl Color_003
s off
f 1/1/1 2/1/1 3/1/1 4/1/1 
f 5/1/1 1/1/1 4/1/1 6/1/1 
f 7/1/1 5/1/1 6/1/1 8/1/1 
f 9/1/1 7/1/1 8/1/1 10/1/1 
f 11/1/1 9/1/1 10/1/1 12/1/1 
f 13/1/1 11/1/1 12/1/1 14/1/1 
f 15/1/1 13/1/1 14/1/1 16/1/1 
f 17/1/1 15/1/1 16/1/1 18/1/1 
f 19/1/1 17/1/1 18/1/1 20/1/1 
f 21/1/1 19/1/1 20/1/1 22/1/1 
f 23/1/1 21/1/1 22/1/1 24/1/1 
f 18/1/2 16/1/3 25/1/3 26/1/2 
f 27/1/4 20/1/4 18/1/2 26/1/2 
f 28/1/5 22/1/5 20/1/4 27/1/4 
f 29/1/6 24/1/7 22/1/5 30/1/6 
f 30/1/6 22/1/5 28/1/5 
f 31/1/8 23/1/8 24/1/9 30/1/6 
f 30/1/6 24/1/9 29/1/6 
f 32/1/10 21/1/10 23/1/8 31/1/8 
f 33/1/11 19/1/11 21/1/10 32/1/10 
f 17/1/12 19/1/11 33/1/11 34/1/12 
f 15/1/13 17/1/12 34/1/12 35/1/13 
f 13/1/14 15/1/13 35/1/13 36/1/14 
f 11/1/15 13/1/14 36/1/14 37/1/16 
f 37/1/16 36/1/14 38/1/16 
f 9/1/17 11/1/18 37/1/16 39/1/17 
f 39/1/17 37/1/16 38/1/16 
f 7/1/19 9/1/17 39/1/17 40/1/19 
f 7/1/19 40/1/19 41/1/20 5/1/20 
f 5/1/20 41/1/20 42/1/21 1/1/21 
f 1/1/21 42/1/21 43/1/22 2/1/23 
f 2/1/23 43/1/22 44/1/22 
f 44/1/22 43/1/22 45/1/24 2/1/25 
f 2/1/25 45/1/24 3/1/24 
f 3/1/24 45/1/24 46/1/26 4/1/26 
f 4/1/26 46/1/26 47/1/27 6/1/27 
f 8/1/28 6/1/27 47/1/27 48/1/28 
f 10/1/29 8/1/28 48/1/28 49/1/29 
f 12/1/30 10/1/29 49/1/29 50/1/31 
f 50/1/31 49/1/29 51/1/31 
f 14/1/32 12/1/33 50/1/31 52/1/32 
f 52/1/32 50/1/31 51/1/31 
f 16/1/3 14/1/32 52/1/32 25/1/3 
#usemtl Color_A01
f 53/1/34 32/1/35 31/1/36 
f 53/1/37 33/1/38 32/1/35 
f 53/1/39 34/1/40 33/1/38 
f 53/1/41 35/1/42 34/1/40 
f 53/1/43 36/1/44 35/1/42 
f 53/1/45 38/1/46 36/1/44 
f 53/1/47 39/1/48 38/1/46 
f 53/1/49 40/1/50 39/1/48 
f 53/1/51 41/1/52 40/1/50 
f 53/1/53 42/1/54 41/1/52 
f 53/1/55 43/1/56 42/1/54 
f 45/1/57 43/1/56 53/1/58 
f 46/1/59 45/1/57 53/1/60 
f 47/1/61 46/1/59 53/1/62 
f 53/1/63 48/1/64 47/1/61 
f 53/1/65 49/1/66 48/1/64 
f 53/1/67 51/1/68 49/1/66 
f 53/1/69 52/1/70 51/1/68 
f 53/1/71 25/1/72 52/1/70 
f 53/1/73 26/1/74 25/1/72 
f 26/1/74 53/1/75 27/1/76 
f 27/1/76 53/1/77 28/1/78 
f 28/1/78 53/1/79 30/1/80 
f 30/1/80 53/1/81 31/1/36 
#usemtl Color_009
f 54/1/82 12/1/82 50/1/82 
f 11/1/82 55/1/82 37/1/82 
f 44/1/83 56/1/83 2/1/83 
f 29/1/84 57/1/84 24/1/84 
# 35 polygons - 36 triangles

